HIERARCHY
ROOT Hips
{
	OFFSET -0.001795 -0.223333 0.028219
	CHANNELS 6 Xposition Yposition Zposition Zrotation Yrotation Xrotation 
	JOINT LeftUpLeg
	{
		OFFSET 0.069520 -0.091406 -0.006815
		CHANNELS 3 Zrotation Yrotation Xrotation
		JOINT LeftLeg
		{
			OFFSET 0.034277 -0.375199 -0.004496
			CHANNELS 3 Zrotation Yrotation Xrotation
			JOINT LeftFoot
			{
				OFFSET -0.013596 -0.397961 -0.043693
				CHANNELS 3 Zrotation Yrotation Xrotation
				JOINT LeftToe
				{
					OFFSET 0.026358 -0.055791 0.119288
					CHANNELS 3 Zrotation Yrotation Xrotation
					End Site
					{
						OFFSET 0.000000 0.000000 0.000000
					}
				}
			}
		}
	}
	JOINT RightUpLeg
	{
		OFFSET -0.067670 -0.090522 -0.004320
		CHANNELS 3 Zrotation Yrotation Xrotation
		JOINT RightLeg
		{
			OFFSET -0.038290 -0.382569 -0.008850
			CHANNELS 3 Zrotation Yrotation Xrotation
			JOINT RightFoot
			{
				OFFSET 0.015774 -0.398415 -0.042312
				CHANNELS 3 Zrotation Yrotation Xrotation
				JOINT RightToe
				{
					OFFSET -0.025372 -0.048144 0.123348
					CHANNELS 3 Zrotation Yrotation Xrotation
					End Site
					{
						OFFSET 0.000000 0.000000 0.000000
					}
				}
			}
		}
	}
	JOINT Spine
	{
		OFFSET -0.002533 0.108963 -0.026696
		CHANNELS 3 Zrotation Yrotation Xrotation
		JOINT Spine1
		{
			OFFSET 0.005487 0.135180 0.001092
			CHANNELS 3 Zrotation Yrotation Xrotation
			JOINT Spine2
			{
				OFFSET 0.001457 0.052922 0.025425
				CHANNELS 3 Zrotation Yrotation Xrotation
				JOINT Neck
				{
					OFFSET -0.002778 0.213870 -0.042857
					CHANNELS 3 Zrotation Yrotation Xrotation
					JOINT Head
					{
						OFFSET 0.005152 0.064970 0.051349
						CHANNELS 3 Zrotation Yrotation Xrotation
						End Site
						{
							OFFSET 0.000000 0.000000 0.000000
						}
					}
				}
				JOINT LeftShoulder
				{
					OFFSET 0.078845 0.121749 -0.034090
					CHANNELS 3 Zrotation Yrotation Xrotation
					JOINT LeftArm
					{
						OFFSET 0.090977 0.030469 -0.008868
						CHANNELS 3 Zrotation Yrotation Xrotation
						JOINT LeftForeArm
						{
							OFFSET 0.259612 -0.012772 -0.027456
							CHANNELS 3 Zrotation Yrotation Xrotation
							JOINT LeftHand
							{
								OFFSET 0.249234 0.008986 -0.001171
								CHANNELS 3 Zrotation Yrotation Xrotation
								End Site
								{
									OFFSET 0.000000 0.000000 0.000000
								}
							}
						}
					}
				}
				JOINT RightShoulder
				{
					OFFSET -0.081759 0.118833 -0.038615
					CHANNELS 3 Zrotation Yrotation Xrotation
					JOINT RightArm
					{
						OFFSET -0.096012 0.032551 -0.009143
						CHANNELS 3 Zrotation Yrotation Xrotation
						JOINT RightForeArm
						{
							OFFSET -0.253742 -0.013329 -0.021401
							CHANNELS 3 Zrotation Yrotation Xrotation
							JOINT RightHand
							{
								OFFSET -0.255298 0.007772 -0.005559
								CHANNELS 3 Zrotation Yrotation Xrotation
								End Site
								{
									OFFSET 0.000000 0.000000 0.000000
								}
							}
						}
					}
				}
			}
		}
	}
}
MOTION
Frames: 5
Frame Time: 0.050000
-0.245726 0.456050 0.623296 12.509339 15.581179 21.248978 49.966918 1.755217 -27.815660 -9.227649 2.978507 85.553775 0.089730 -5.024590 -9.240069 0.000000 0.000000 0.000000 -10.290013 -8.270126 -73.119177 6.428578 -17.743643 138.128230 -7.921237 -19.796822 -3.982251 0.000000 0.000000 0.000000 -4.013442 -9.210157 75.167637 4.836581 0.796877 -40.581778 3.927558 2.028875 14.255474 -10.109249 5.254021 -52.665778 0.000000 0.000000 0.000000 8.256130 -16.564108 5.625751 13.926765 -23.492169 -3.429840 65.997498 -28.376135 -17.478062 0.000000 0.000000 0.000000 -20.897602 26.332963 5.579893 -20.719668 24.231949 -3.840304 -78.264700 14.858304 -7.742458 0.000000 0.000000 0.000000 
-0.244436 0.454252 0.619733 12.298694 16.951278 22.744180 48.122511 0.648084 -26.626237 -10.137860 2.936936 84.516769 -1.271249 -2.686205 0.163516 0.000000 0.000000 0.000000 -10.184480 -9.303188 -74.072087 6.407106 -17.985750 137.964709 -8.811777 -22.351457 -1.798954 0.000000 0.000000 0.000000 -3.180421 -10.573411 74.359591 4.820658 0.798185 -40.837570 4.321452 1.361880 16.023895 -8.816993 4.896702 -53.871853 0.000000 0.000000 0.000000 9.420045 -16.221791 5.465909 12.827004 -23.604874 -3.324648 68.943627 -25.690197 -16.725179 0.000000 0.000000 0.000000 -22.914703 26.728487 5.193321 -20.744023 23.385654 -3.644582 -79.329475 11.053252 -5.038796 0.000000 0.000000 0.000000 
-0.243239 0.452834 0.615674 11.719874 17.741169 23.991600 48.073149 0.155500 -26.166344 -12.323689 5.123997 84.208838 -0.106896 1.437188 3.762520 0.000000 0.000000 0.000000 -10.009824 -9.894750 -75.203687 6.348847 -17.697516 137.661531 -9.048648 -23.034617 -1.091704 0.000000 0.000000 0.000000 -2.806905 -11.054864 73.182262 4.761466 0.753541 -40.339055 4.480796 1.042307 16.246028 -6.837853 4.505499 -53.060533 0.000000 0.000000 0.000000 10.035696 -15.869581 5.362748 12.645773 -24.813642 -3.569757 72.016430 -25.162623 -17.248748 0.000000 0.000000 0.000000 -21.971127 26.000258 5.298702 -22.467699 24.784764 -4.242220 -77.008960 7.939800 -2.465933 0.000000 0.000000 0.000000 
-0.242520 0.452309 0.610912 10.923459 19.276852 25.098264 48.100932 -0.140078 -27.216174 -13.871311 6.200694 83.585519 1.781185 4.887023 2.855481 0.000000 0.000000 0.000000 -9.436293 -10.518398 -75.623546 6.032016 -17.088340 137.433232 -8.978151 -22.922238 -3.275910 0.000000 0.000000 0.000000 -2.275881 -12.118749 72.339307 4.690424 0.676840 -39.278685 4.792091 1.419937 16.637345 -4.864615 4.107662 -53.322646 0.000000 0.000000 0.000000 12.370911 -15.655396 5.249129 11.858641 -25.043446 -3.565159 73.005183 -22.937245 -16.300496 0.000000 0.000000 0.000000 -24.409823 24.476977 4.462590 -21.014743 24.752382 -3.932196 -74.298284 4.747293 0.278736 0.000000 0.000000 0.000000 
-0.241988 0.456319 0.606548 9.871929 19.100530 25.799068 48.614383 0.033152 -27.666476 -14.652912 7.359766 82.805454 2.836374 6.502038 1.140042 0.000000 0.000000 0.000000 -8.825769 -10.094730 -76.721062 5.908100 -16.135797 136.864651 -9.241319 -23.504405 -3.709236 0.000000 0.000000 0.000000 -2.547570 -11.504029 71.179521 5.266087 0.571822 -38.922777 5.095250 2.425401 17.591058 -4.083804 3.964314 -54.095908 0.000000 0.000000 0.000000 13.989846 -14.422868 4.982575 10.723737 -25.792935 -3.660066 75.139037 -22.728023 -17.293096 0.000000 0.000000 0.000000 -24.860706 24.127707 4.133051 -20.525378 23.824677 -3.509085 -70.960343 2.965561 1.773965 0.000000 0.000000 0.000000 
